<?xml version="1.0" encoding="UTF-8" standalone="no"?>
<!DOCTYPE svg PUBLIC "-//W3C//DTD SVG 1.1//EN"
 "http://www.w3.org/Graphics/SVG/1.1/DTD/svg11.dtd">
<!-- Generated by graphviz version 2.47.0 (20210316.0004)
 -->
<!-- Title: dependencies Pages: 1 -->
<svg width="620pt" height="222pt"
 viewBox="0.00 0.00 620.00 222.00" xmlns="http://www.w3.org/2000/svg" xmlns:xlink="http://www.w3.org/1999/xlink">
<g id="graph0" class="graph" transform="scale(1 1) rotate(0) translate(4 218)">
<title>dependencies</title>
<polygon fill="white" stroke="transparent" points="-4,4 -4,-218 616,-218 616,4 -4,4"/>
<text text-anchor="start" x="285.01" y="-42.4" font-family="sans-serif" font-weight="bold" font-size="14.00">Legend</text>
<polygon fill="#ffffb3" stroke="transparent" points="72,-10 72,-30 92,-30 92,-10 72,-10"/>
<text text-anchor="start" x="95.63" y="-15.4" font-family="sans-serif" font-size="14.00"> &#160;Declarations</text>
<polygon fill="#8dd3c7" stroke="transparent" points="185,-10 185,-30 205,-30 205,-10 185,-10"/>
<text text-anchor="start" x="208.73" y="-15.4" font-family="sans-serif" font-size="14.00"> &#160;Module</text>
<polygon fill="#80b1d3" stroke="transparent" points="271,-10 271,-30 291,-30 291,-10 271,-10"/>
<text text-anchor="start" x="294.78" y="-15.4" font-family="sans-serif" font-size="14.00"> &#160;Bootstrap</text>
<polygon fill="#fdb462" stroke="transparent" points="368,-10 368,-30 388,-30 388,-10 368,-10"/>
<text text-anchor="start" x="391.67" y="-15.4" font-family="sans-serif" font-size="14.00"> &#160;Providers</text>
<polygon fill="#fb8072" stroke="transparent" points="464,-10 464,-30 484,-30 484,-10 464,-10"/>
<text text-anchor="start" x="487.73" y="-15.4" font-family="sans-serif" font-size="14.00"> &#160;Exports</text>
<g id="clust1" class="cluster">
<title>cluster_AppModule</title>
<polygon fill="none" stroke="black" stroke-dasharray="1,5" points="8,-70 8,-198 298,-198 298,-70 8,-70"/>
</g>
<g id="clust2" class="cluster">
<title>cluster_AppModule_declarations</title>
<polygon fill="none" stroke="black" points="16,-78 16,-130 168,-130 168,-78 16,-78"/>
</g>
<g id="clust4" class="cluster">
<title>cluster_AppModule_imports</title>
<polygon fill="none" stroke="black" points="176,-78 176,-130 290,-130 290,-78 176,-78"/>
</g>
<g id="clust8" class="cluster">
<title>cluster_ButtonModule</title>
<polygon fill="none" stroke="black" stroke-dasharray="1,5" points="306,-138 306,-206 604,-206 604,-138 306,-138"/>
</g>
<g id="clust9" class="cluster">
<title>cluster_ButtonModule_declarations</title>
<polygon fill="none" stroke="black" points="460,-146 460,-198 596,-198 596,-146 460,-146"/>
</g>
<g id="clust12" class="cluster">
<title>cluster_ButtonModule_exports</title>
<polygon fill="none" stroke="black" points="314,-146 314,-198 452,-198 452,-146 314,-146"/>
</g>
<!-- RippeEffectDirective -->
<g id="node1" class="node">
<title>RippeEffectDirective</title>
<polygon fill="#ffffb3" stroke="black" points="159.72,-122 24.28,-122 24.28,-86 159.72,-86 159.72,-122"/>
<text text-anchor="middle" x="92" y="-99.8" font-family="Times,serif" font-size="14.00">RippeEffectDirective</text>
</g>
<!-- AppModule -->
<g id="node2" class="node">
<title>AppModule</title>
<polygon fill="#8dd3c7" stroke="black" points="203.66,-190 200.66,-194 179.66,-194 176.66,-190 120.34,-190 120.34,-154 203.66,-154 203.66,-190"/>
<text text-anchor="middle" x="162" y="-167.8" font-family="Times,serif" font-size="14.00">AppModule</text>
</g>
<!-- RippeEffectDirective&#45;&gt;AppModule -->
<g id="edge1" class="edge">
<title>RippeEffectDirective&#45;&gt;AppModule</title>
<path fill="none" stroke="black" d="M140.02,-122.22C140.02,-122.22 140.02,-143.73 140.02,-143.73"/>
<polygon fill="black" stroke="black" points="136.52,-143.73 140.02,-153.73 143.52,-143.73 136.52,-143.73"/>
</g>
<!-- ButtonModule -->
<g id="node3" class="node">
<title>ButtonModule</title>
<polygon fill="#8dd3c7" stroke="black" points="281.67,-122 278.67,-126 257.67,-126 254.67,-122 184.33,-122 184.33,-86 281.67,-86 281.67,-122"/>
<text text-anchor="middle" x="233" y="-99.8" font-family="Times,serif" font-size="14.00">ButtonModule</text>
</g>
<!-- ButtonModule&#45;&gt;AppModule -->
<g id="edge2" class="edge">
<title>ButtonModule&#45;&gt;AppModule</title>
<path fill="none" stroke="black" d="M194,-122.22C194,-122.22 194,-143.73 194,-143.73"/>
<polygon fill="black" stroke="black" points="190.5,-143.73 194,-153.73 197.5,-143.73 190.5,-143.73"/>
</g>
<!-- ButtonComponent  -->
<g id="node5" class="node">
<title>ButtonComponent </title>
<polygon fill="#fb8072" stroke="black" points="444.45,-190 321.55,-190 321.55,-154 444.45,-154 444.45,-190"/>
<text text-anchor="middle" x="383" y="-167.8" font-family="Times,serif" font-size="14.00">ButtonComponent </text>
</g>
<!-- ButtonModule&#45;&gt;ButtonComponent  -->
<g id="edge4" class="edge">
<title>ButtonModule&#45;&gt;ButtonComponent </title>
<path fill="none" stroke="black" stroke-dasharray="5,2" d="M242.83,-122.22C242.83,-142.37 242.83,-172 242.83,-172 242.83,-172 311.52,-172 311.52,-172"/>
<polygon fill="black" stroke="black" points="311.52,-175.5 321.52,-172 311.52,-168.5 311.52,-175.5"/>
</g>
<!-- ButtonComponent -->
<g id="node4" class="node">
<title>ButtonComponent</title>
<polygon fill="#ffffb3" stroke="black" points="587.95,-190 468.05,-190 468.05,-154 587.95,-154 587.95,-190"/>
<text text-anchor="middle" x="528" y="-167.8" font-family="Times,serif" font-size="14.00">ButtonComponent</text>
</g>
<!-- ButtonComponent&#45;&gt;ButtonModule -->
<g id="edge3" class="edge">
<title>ButtonComponent&#45;&gt;ButtonModule</title>
<path fill="none" stroke="black" d="M528,-153.78C528,-133.63 528,-104 528,-104 528,-104 291.71,-104 291.71,-104"/>
<polygon fill="black" stroke="black" points="291.71,-100.5 281.71,-104 291.71,-107.5 291.71,-100.5"/>
</g>
</g>
</svg>
